<?xml version="1.0" encoding="UTF-8" standalone="no"?>
<!-- Created with Inkscape (http://www.inkscape.org/) -->

<svg
   xmlns:dc="http://purl.org/dc/elements/1.1/"
   xmlns:cc="http://creativecommons.org/ns#"
   xmlns:rdf="http://www.w3.org/1999/02/22-rdf-syntax-ns#"
   xmlns:svg="http://www.w3.org/2000/svg"
   xmlns="http://www.w3.org/2000/svg"
   xmlns:xlink="http://www.w3.org/1999/xlink"
   xmlns:sodipodi="http://sodipodi.sourceforge.net/DTD/sodipodi-0.dtd"
   xmlns:inkscape="http://www.inkscape.org/namespaces/inkscape"
   inkscape:version="0.92.4 (5da689c313, 2019-01-14)"
   sodipodi:docname="logo.svg"
   id="svg8"
   version="1.1"
   viewBox="0 0 75.920392 100.13142"
   height="378.44946"
   width="286.94321">
  <defs
     id="defs2">
    <linearGradient
       inkscape:collect="always"
       id="linearGradient3828">
      <stop
         style="stop-color:#ed9514;stop-opacity:1"
         offset="0"
         id="stop3824" />
      <stop
         style="stop-color:#ef5714;stop-opacity:1"
         offset="1"
         id="stop3826" />
    </linearGradient>
    <inkscape:path-effect
       effect="bspline"
       id="path-effect3806"
       is_visible="true"
       weight="33.333333"
       steps="2"
       helper_size="0"
       apply_no_weight="true"
       apply_with_weight="true"
       only_selected="false" />
    <inkscape:path-effect
       only_selected="false"
       apply_with_weight="true"
       apply_no_weight="true"
       helper_size="0"
       steps="2"
       weight="33.333333"
       is_visible="true"
       id="path-effect3802"
       effect="bspline" />
    <inkscape:path-effect
       only_selected="false"
       apply_with_weight="true"
       apply_no_weight="true"
       helper_size="0"
       steps="2"
       weight="33.333333"
       is_visible="true"
       id="path-effect3798"
       effect="bspline" />
    <inkscape:path-effect
       only_selected="false"
       apply_with_weight="true"
       apply_no_weight="true"
       helper_size="0"
       steps="2"
       weight="33.333333"
       is_visible="true"
       id="path-effect3794"
       effect="bspline" />
    <inkscape:path-effect
       only_selected="false"
       apply_with_weight="true"
       apply_no_weight="true"
       helper_size="0"
       steps="2"
       weight="33.333333"
       is_visible="true"
       id="path-effect3757"
       effect="bspline" />
    <inkscape:path-effect
       effect="bspline"
       id="path-effect3753"
       is_visible="true"
       weight="33.333333"
       steps="2"
       helper_size="0"
       apply_no_weight="true"
       apply_with_weight="true"
       only_selected="false" />
    <inkscape:path-effect
       effect="bspline"
       id="path-effect3747"
       is_visible="true"
       weight="33.333333"
       steps="2"
       helper_size="0"
       apply_no_weight="true"
       apply_with_weight="true"
       only_selected="false" />
    <inkscape:path-effect
       effect="bspline"
       id="path-effect3743"
       is_visible="true"
       weight="33.333333"
       steps="2"
       helper_size="0"
       apply_no_weight="true"
       apply_with_weight="true"
       only_selected="false" />
    <inkscape:path-effect
       only_selected="false"
       apply_with_weight="true"
       apply_no_weight="true"
       helper_size="0"
       steps="2"
       weight="33.333333"
       is_visible="true"
       id="path-effect3739"
       effect="bspline" />
    <inkscape:path-effect
       effect="bspline"
       id="path-effect3735"
       is_visible="true"
       weight="33.333333"
       steps="2"
       helper_size="0"
       apply_no_weight="true"
       apply_with_weight="true"
       only_selected="false" />
    <inkscape:path-effect
       effect="bspline"
       id="path-effect3731"
       is_visible="true"
       weight="33.333333"
       steps="2"
       helper_size="0"
       apply_no_weight="true"
       apply_with_weight="true"
       only_selected="false" />
    <linearGradient
       inkscape:collect="always"
       xlink:href="#linearGradient3828"
       id="linearGradient3830"
       x1="268.54971"
       y1="409.44177"
       x2="323.25214"
       y2="368.77124"
       gradientUnits="userSpaceOnUse"
       gradientTransform="matrix(1.0055534,-0.23347235,0.23347235,1.0055534,-125.5662,-439.76737)" />
    <clipPath
       clipPathUnits="userSpaceOnUse"
       id="clipPath4119">
      <rect
         ry="0"
         y="237.46571"
         x="72.496857"
         height="39.422253"
         width="169.31525"
         id="rect4121"
         style="opacity:1;fill:#ffffff;fill-opacity:1;stroke:none;stroke-width:0.69999999;stroke-linecap:square;stroke-linejoin:miter;stroke-miterlimit:4;stroke-dasharray:none;stroke-dashoffset:0;stroke-opacity:1" />
    </clipPath>
  </defs>
  <sodipodi:namedview
     id="base"
     pagecolor="#6b6b6b"
     bordercolor="#000000"
     borderopacity="1"
     inkscape:pageopacity="0"
     inkscape:pageshadow="2"
     inkscape:zoom="0.24748738"
     inkscape:cx="444.94412"
     inkscape:cy="-217.56662"
     inkscape:document-units="mm"
     inkscape:current-layer="layer1"
     showgrid="false"
     inkscape:window-width="1920"
     inkscape:window-height="1017"
     inkscape:window-x="1912"
     inkscape:window-y="-8"
     inkscape:window-maximized="1"
     showguides="true"
     inkscape:guide-bbox="true"
     inkscape:snap-nodes="true"
     units="px" />
  <metadata
     id="metadata5">
    <rdf:RDF>
      <cc:Work
         rdf:about="">
        <dc:format>image/svg+xml</dc:format>
        <dc:type
           rdf:resource="http://purl.org/dc/dcmitype/StillImage" />
        <dc:title />
      </cc:Work>
    </rdf:RDF>
  </metadata>
  <g
     inkscape:label="Layer 1"
     inkscape:groupmode="layer"
     id="layer1"
     transform="translate(-226.3573,171.11239)">
    <path
       style="opacity:1;fill:url(#linearGradient3830);fill-opacity:1;stroke:none;stroke-width:0.69999993;stroke-linecap:square;stroke-linejoin:miter;stroke-miterlimit:4;stroke-dasharray:none;stroke-dashoffset:0;stroke-opacity:1"
       d="m 301.30543,-125.65722 a 37.522783,37.522783 0 0 1 -28.06411,45.036915 37.522783,37.522783 0 0 1 -45.03693,-28.064105 37.522783,37.522783 0 0 1 28.06411,-45.03692 37.522783,37.522783 0 0 1 45.03693,28.06411 z"
       id="path3749"
       inkscape:connector-curvature="0" />
    <path
       style="fill:#171014;fill-opacity:1;stroke:none;stroke-width:0.26458326px;stroke-linecap:butt;stroke-linejoin:miter;stroke-opacity:1"
       d="m 283.13261,-150.34187 c -0.4806,0.36111 -0.94369,0.71719 -1.37204,1.06959 -1.75748,1.44584 -2.94609,2.82833 -4.07617,4.73175 -1.13004,1.90343 -2.20189,4.32875 -4.68425,7.44066 -2.48237,3.1119 -6.37581,6.9105 -10.35867,10.76729 -3.98286,3.85679 -8.05567,7.77212 -9.60063,10.68247 -1.54496,2.91035 -0.56218,4.81634 -0.49985,7.92984 0.0623,3.11349 -0.79617,7.43562 -3.10366,11.247932 -2.30748,3.812314 -6.06465,7.115626 -8.09199,11.712576 -2.02733,4.596953 -2.32463,10.487659 -2.31628,12.695204 0.008,2.207544 0.322,0.732479 1.06158,-1.655304 0.73961,-2.38781 1.90453,-5.687459 4.03986,-8.472373 2.13536,-2.784914 5.24087,-5.054779 7.7074,-8.309121 2.46652,-3.254342 4.29352,-7.492189 5.6637,-11.103374 1.37018,-3.61117 2.28263,-6.59389 3.29143,-8.72415 1.00881,-2.13026 2.11318,-3.40625 3.5859,-5.25241 1.47271,-1.84616 3.31358,-4.26163 5.53301,-7.15206 2.21945,-2.89042 4.81686,-6.2551 6.78397,-8.82924 1.96711,-2.57414 3.30255,-4.35627 4.63307,-6.1865 1.33053,-1.83023 2.656,-3.70802 3.15594,-3.95611 0.49993,-0.24809 0.17496,1.13272 -0.0283,2.73983 -0.20326,1.60711 -0.28499,3.44094 -1.16668,5.84455 -0.88169,2.40362 -2.56337,5.37763 -4.51945,8.04613 -1.95607,2.6685 -4.18741,5.03271 -5.55969,6.9152 -1.37229,1.88249 -1.88637,3.28402 -2.00204,3.53735 -0.11567,0.25334 0.16721,-0.64242 2.88332,-2.53232 2.71611,-1.8899 7.86494,-4.7735 11.39465,-8.81963 3.52968,-4.04614 5.43973,-9.25378 6.19289,-13.2276 0.75315,-3.97381 0.43428,-6.68842 0.52493,-9.72347 0.0136,-0.0686 -0.0316,-1.27833 -0.01,-1.41671 z"
       id="path3729"
       inkscape:connector-curvature="0"
       sodipodi:nodetypes="cccsssssssccsssscssccssscscsccc" />
    <path
       style="fill:#171014;fill-opacity:1;stroke:none;stroke-width:0.26458332px;stroke-linecap:butt;stroke-linejoin:miter;stroke-opacity:1"
       d="m 262.05882,-90.555882 c 1.18493,-3.724963 3.22842,-9.056179 6.50401,-13.692218 3.27559,-4.63602 7.78362,-8.57738 10.61956,-11.05264 2.83594,-2.47527 4.00015,-3.48475 5.92994,-5.13913 1.9298,-1.65439 4.62637,-3.9547 6.23597,-5.97254 1.60959,-2.01784 2.13304,-3.75393 2.75096,-6.77786 0.61793,-3.02395 1.33067,-7.33738 1.68695,-9.4936 0.35629,-2.1562 0.94193,3.04859 1.04004,4.27541 0.0981,1.22681 0.29431,3.68002 -0.12703,6.32296 -0.42135,2.64294 -1.46017,5.47475 -2.82839,7.86487 -1.36823,2.39013 -3.06549,4.3378 -4.95787,6.48756 -1.89237,2.14975 -4.05749,4.58899 -6.41599,7.05061 -2.3585,2.46162 -4.94875,4.98889 -6.66795,7.09899 -1.7192,2.1101 -2.56684,3.802497 -3.55906,5.631274 -0.99222,1.828768 -2.12855,3.793061 -2.96793,5.205239 -0.83938,1.412177 -1.38144,2.271643 -0.8952,1.977184 0.48625,-0.294469 1.99985,-1.74211 3.36446,-3.452785 1.36462,-1.710675 2.58022,-3.684505 4.0676,-5.369051 1.48739,-1.684541 3.24719,-3.080621 4.6562,-4.397061 1.40901,-1.31644 2.46785,-2.55376 3.67524,-3.88736 1.2074,-1.3336 2.56404,-2.76425 2.82727,-2.55447 0.26322,0.20977 -0.56689,2.06037 -1.96181,4.21399 -1.39492,2.15363 -3.35425,4.60978 -5.04288,6.636617 -1.68863,2.026849 -3.10595,3.623626 -5.11805,6.325915 -2.01209,2.702287 -4.61795,6.508735 -7.27754,9.84273 -2.65958,3.334003 -5.37212,6.194517 -6.72861,7.624999 -1.35648,1.430473 -1.35648,1.430473 -1.2383,0.0574 0.11819,-1.373033 0.35454,-4.118846 0.63587,-6.551119 0.28133,-2.432263 0.60762,-4.550974 1.79253,-8.275945 z"
       id="path3733"
       inkscape:connector-curvature="0" />
    <path
       style="fill:#171014;fill-opacity:1;stroke:none;stroke-width:0.26458335px;stroke-linecap:butt;stroke-linejoin:miter;stroke-opacity:1"
       d="m 263.82678,-146.13433 c -2.79244,1.58421 -6.15746,4.20162 -8.77457,6.19676 -2.61712,1.99514 -4.48601,3.36778 -5.98662,4.76371 -1.50061,1.39593 -2.63237,2.81469 -3.70608,3.90869 -1.07372,1.094 -2.08869,1.86251 -3.67638,3.63438 -1.58769,1.77186 -3.74672,4.54574 -5.38558,8.23483 -1.63886,3.68909 -2.75681,8.29196 -3.34215,12.08206 -0.58535,3.7901 -0.6379,6.7665 -0.90142,9.207214 -0.26354,2.440727 -0.73802,4.345228 -0.91977,6.174099 -0.18176,1.828863 -0.0707,3.581252 0.16442,4.329801 0.23508,0.748541 0.59374,0.49296 1.54624,-0.4102 0.9525,-0.90315 2.50125,-2.45622 4.43067,-4.438334 1.92943,-1.982114 4.24153,-4.395295 5.82616,-6.381787 1.58463,-1.986503 2.44243,-3.546993 3.19646,-4.880283 0.75403,-1.33329 1.40462,-2.43998 1.92985,-3.5107 0.52522,-1.07073 0.92549,-2.10627 1.41187,-3.90428 0.48638,-1.798 1.05939,-4.36035 1.06079,-5.114 0.001,-0.75364 -0.56889,0.30089 -1.69574,2.15018 -1.12685,1.8493 -2.80937,4.49194 -4.12042,6.23251 -1.31105,1.74058 -2.24997,2.57805 -3.09479,3.29746 -0.84482,0.71942 -1.59499,1.32032 -2.00409,1.12934 -0.40911,-0.19098 -0.47659,-1.17326 -0.2752,-2.44428 0.20138,-1.27103 0.67179,-2.83125 1.25072,-4.38157 0.57892,-1.55032 1.26673,-3.09184 1.71598,-4.4554 0.44923,-1.36355 0.66023,-2.54997 1.26306,-3.88769 0.60283,-1.33771 1.59791,-2.82775 2.58096,-4.22984 0.98305,-1.4021 1.95469,-2.71717 3.10058,-4.20211 1.14588,-1.48495 2.46677,-3.14076 4.00488,-4.58377 1.5381,-1.44302 3.29426,-2.67409 4.92455,-4.06295 1.63029,-1.38885 3.13553,-2.93615 4.57244,-4.13101 1.4369,-1.19487 2.80609,-2.0379 3.93634,-2.89693 1.13024,-0.85904 2.02218,-1.73453 4.93267,-3.70956 2.9105,-1.97503 7.84256,-5.05164 9.68451,-6.39016 1.84194,-1.33852 0.59549,-0.94 -1.6562,0.0143 -2.2517,0.95427 -5.50653,2.46346 -8.24436,3.49386 -2.73785,1.03041 -4.95736,1.58148 -7.74978,3.16569 z"
       id="path3745"
       inkscape:connector-curvature="0" />
    <path
       style="fill:#171014;fill-opacity:1;stroke:none;stroke-width:0.26458332px;stroke-linecap:butt;stroke-linejoin:miter;stroke-opacity:1"
       d="m 290.35963,-110.16831 c -0.10353,0.0574 0.15437,-0.26954 0.79292,-1.68524 0.63855,-1.4157 1.65973,-3.92476 2.69298,-5.8002 1.03324,-1.87543 2.0797,-3.11995 3.06028,-4.21541 0.9806,-1.09546 1.89591,-2.04253 2.46984,-2.87675 0.57394,-0.83421 0.807,-1.55612 1.01896,-1.50538 0.21196,0.0507 0.40326,0.87464 0.50006,2.15425 0.0968,1.27962 0.0991,3.0143 -0.27807,5.27184 -0.37718,2.25755 -1.13369,5.03638 -1.94639,7.8623 -0.8127,2.82592 -1.68123,5.69767 -2.71166,7.8731 -1.03043,2.17543 -2.2225,3.653747 -3.25137,5.261357 -1.02888,1.607603 -1.89399,3.343659 -3.45174,4.973982 -1.55776,1.630325 -3.80719,3.153814 -5.67709,4.589426 -1.8699,1.435602 -3.35941,2.782726 -5.1689,3.903955 -1.80948,1.121217 -3.93794,2.015903 -5.8305,2.922656 -1.89255,0.906762 -3.54833,1.82522 -4.28648,2.096604 -0.73812,0.271422 -0.55832,-0.104108 0.67986,-1.091998 1.23818,-0.987893 3.53882,-2.591213 6.10465,-4.622221 2.56582,-2.031009 5.39971,-4.491759 7.74843,-6.739431 2.34872,-2.247679 4.21302,-4.282952 5.36101,-5.951433 1.14799,-1.668491 1.58011,-2.970677 2.39216,-4.360717 0.81204,-1.39003 2.00459,-2.86895 2.79742,-4.05439 0.79283,-1.18545 1.18652,-2.07814 1.7055,-3.86718 0.51899,-1.78903 1.16391,-4.47667 1.44135,-5.72608 0.27742,-1.24942 0.18748,-1.06162 -0.33905,-0.52143 -0.52655,0.54018 -1.48622,1.42937 -2.35762,2.34946 -0.8714,0.92009 -1.65222,1.86891 -2.27525,2.56441 -0.62303,0.69551 -1.08778,1.13712 -1.1913,1.19452 z"
       id="path3751"
       inkscape:connector-curvature="0" />
    <path
       style="fill:#171014;fill-opacity:1;stroke:none;stroke-width:0.26458332px;stroke-linecap:butt;stroke-linejoin:miter;stroke-opacity:1"
       d="m 252.36322,-141.84515 c -0.0363,0.11268 0.23462,-0.20355 1.50023,-1.10366 1.26561,-0.9001 3.53002,-2.38693 5.17041,-3.76315 1.64039,-1.3762 2.65921,-2.64344 3.54452,-3.81725 0.8853,-1.17381 1.63763,-2.2549 2.3452,-2.97923 0.70757,-0.72434 1.37083,-1.09252 1.28008,-1.29068 -0.0907,-0.19815 -0.93609,-0.22662 -2.21028,-0.0743 -1.2742,0.15233 -2.97663,0.48528 -5.11872,1.29165 -2.14209,0.80637 -4.72234,2.08564 -7.33792,3.42915 -2.61558,1.34351 -5.26535,2.75066 -7.20062,4.18208 -1.93528,1.43143 -3.15535,2.88672 -4.53382,4.20688 -1.37845,1.32017 -2.91459,2.50448 -4.21313,4.34793 -1.29854,1.84347 -2.35859,4.34491 -3.40577,6.45701 -1.04716,2.11209 -2.08103,3.83386 -2.83142,5.82593 -0.75038,1.99205 -1.21686,4.25329 -1.74077,6.28541 -0.52391,2.03211 -1.10506,3.83417 -1.22868,4.61085 -0.12365,0.77667 0.21005,0.52768 0.94003,-0.87807 0.72998,-1.40576 1.85845,-3.97288 3.35531,-6.88285 1.49685,-2.90997 3.36354,-6.16598 5.11493,-8.90481 1.75139,-2.73882 3.388,-4.96131 4.80317,-6.41011 1.41518,-1.44879 2.60931,-2.12443 3.81621,-3.18981 1.20689,-1.06536 2.42746,-2.52124 3.43733,-3.52822 1.00988,-1.00698 1.80966,-1.56577 3.46467,-2.42072 1.65501,-0.85495 4.16734,-2.00712 5.33958,-2.52078 1.17225,-0.51365 1.00538,-0.38912 0.57713,0.23189 -0.42824,0.62101 -1.1152,1.73444 -1.84954,2.76722 -0.73434,1.03278 -1.51438,1.98226 -2.07636,2.72795 -0.56199,0.7457 -0.90546,1.28703 -0.94177,1.39969 z"
       id="path3755"
       inkscape:connector-curvature="0" />
    <path
       style="opacity:1;fill:#171014;fill-opacity:1;stroke:none;stroke-width:0.69999999;stroke-linecap:square;stroke-linejoin:miter;stroke-miterlimit:4;stroke-dasharray:none;stroke-dashoffset:0;stroke-opacity:1"
       d="m 284.00858,-152.41797 h 7.34591 c 0.46811,0 0.84495,0.37685 0.84495,0.84495 0,0.46811 -0.37684,0.84496 -0.84495,0.84496 h -7.34591 c -0.46811,0 -0.84495,-0.37685 -0.84495,-0.84496 0,-0.4681 0.37684,-0.84495 0.84495,-0.84495 z"
       id="rect3762"
       inkscape:connector-curvature="0" />
    <path
       style="opacity:1;fill:#171014;fill-opacity:1;stroke:none;stroke-width:0.69999999;stroke-linecap:square;stroke-linejoin:miter;stroke-miterlimit:4;stroke-dasharray:none;stroke-dashoffset:0;stroke-opacity:1"
       d="m 292.19945,-151.52129 v 2.06926 c 0,0.46811 -0.37685,0.84495 -0.84495,0.84495 -0.4681,0 -0.84496,-0.37684 -0.84496,-0.84495 v -2.06926 c 0,-0.4681 0.37686,-0.84495 0.84496,-0.84495 0.4681,0 0.84495,0.37685 0.84495,0.84495 z"
       id="rect3764"
       inkscape:connector-curvature="0" />
    <path
       style="opacity:1;fill:#171014;fill-opacity:1;stroke:none;stroke-width:0.69999999;stroke-linecap:square;stroke-linejoin:miter;stroke-miterlimit:4;stroke-dasharray:none;stroke-dashoffset:0;stroke-opacity:1"
       d="m 284.85353,-153.64228 v 2.06926 c 0,0.4681 -0.37685,0.84495 -0.84495,0.84495 -0.46811,0 -0.84495,-0.37685 -0.84495,-0.84495 v -2.06926 c 0,-0.46811 0.37684,-0.84496 0.84495,-0.84496 0.4681,0 0.84495,0.37685 0.84495,0.84496 z"
       id="rect3766"
       inkscape:connector-curvature="0" />
    <path
       style="opacity:1;fill:#171014;fill-opacity:1;stroke:none;stroke-width:0.69999999;stroke-linecap:square;stroke-linejoin:miter;stroke-miterlimit:4;stroke-dasharray:none;stroke-dashoffset:0;stroke-opacity:1"
       d="m 284.00858,-154.48724 h 4.19028 c 0.46811,0 0.84495,0.37685 0.84495,0.84496 0,0.4681 -0.37684,0.84495 -0.84495,0.84495 h -4.19028 c -0.46811,0 -0.84495,-0.37685 -0.84495,-0.84495 0,-0.46811 0.37684,-0.84496 0.84495,-0.84496 z"
       id="rect3768"
       inkscape:connector-curvature="0" />
    <path
       style="opacity:1;fill:#171014;fill-opacity:1;stroke:none;stroke-width:0.69999999;stroke-linecap:square;stroke-linejoin:miter;stroke-miterlimit:4;stroke-dasharray:none;stroke-dashoffset:0;stroke-opacity:1"
       d="m 289.04382,-158.05672 v 4.41447 c 0,0.4681 -0.37684,0.84495 -0.84495,0.84495 -0.4681,0 -0.84495,-0.37685 -0.84495,-0.84495 v -4.41447 c 0,-0.46811 0.37685,-0.84495 0.84495,-0.84495 0.46811,0 0.84495,0.37684 0.84495,0.84495 z"
       id="rect3770"
       inkscape:connector-curvature="0" />
    <path
       sodipodi:nodetypes="cccsssscccccccc"
       inkscape:connector-curvature="0"
       style="opacity:1;fill:#171014;fill-opacity:1;stroke:none;stroke-width:0.69999999;stroke-linecap:square;stroke-linejoin:miter;stroke-miterlimit:4;stroke-dasharray:none;stroke-dashoffset:0;stroke-opacity:1"
       d="m 283.07761,-171.11239 v 8.90249 0.16431 0.14669 c 0,1.64314 1.32288,2.96602 2.96602,2.96602 h 4.31048 c 1.64314,0 2.96602,-1.32288 2.96602,-2.96602 v -0.14669 -0.16431 -8.90249 h -2.96602 -0.1643 -3.98188 -0.1643 z"
       id="path3774" />
    <path
       id="path3776"
       d="m 285.51818,-159.56701 v 1.55255 0.086 0.0768 c 0,0.86009 0.69245,1.55255 1.55254,1.55255 h 2.2563 c 0.86008,0 1.55254,-0.69246 1.55254,-1.55255 v -0.0768 -0.086 -1.55255 h -1.55254 -0.086 -2.08429 -0.086 z"
       style="opacity:1;fill:#171014;fill-opacity:1;stroke:none;stroke-width:0.69999999;stroke-linecap:square;stroke-linejoin:miter;stroke-miterlimit:4;stroke-dasharray:none;stroke-dashoffset:0;stroke-opacity:1"
       inkscape:connector-curvature="0"
       sodipodi:nodetypes="cccsssscccccccc" />
    <path
       style="opacity:1;fill:#171014;fill-opacity:1;stroke:none;stroke-width:0.69999999;stroke-linecap:square;stroke-linejoin:miter;stroke-miterlimit:4;stroke-dasharray:none;stroke-dashoffset:0;stroke-opacity:1"
       d="m 281.60781,-168.41367 h 13.1821 c 0.4681,0 0.84495,0.37685 0.84495,0.84495 v 2.99232 c 0,0.46811 -0.37685,0.84496 -0.84495,0.84496 h -13.1821 c -0.46811,0 -0.84496,-0.37685 -0.84496,-0.84496 v -2.99232 c 0,-0.4681 0.37685,-0.84495 0.84496,-0.84495 z"
       id="rect3786"
       inkscape:connector-curvature="0" />
  </g>
</svg>
